# xmcd
#
# Track frame offsets:
#	150
#	18008
#	32838
#	51528
#
# Disc length: 966 seconds
# Revision: 1
# Processed by: cddbd v1.5.2PL0 Copyright (c) Steve Scherf et al.
# Submitted via: dBpowerAMP V12.0
#
DISCID=2b03c404
DTITLE=Caitlin Holland - Monday Goodbyes
DYEAR=2006
DGENRE=Country
TTITLE0=How Do I Know
TTITLE1=Friend Needs a Friend
TTITLE2=Like You Are
TTITLE3=Monday Goodbyes
EXTD=
EXTT0=
EXTT1=
EXTT2=
EXTT3=
PLAYORDER=
